# xmcd
# Track frame offsets:
# 150
# 16308
# 33876
# 50926
# 68239
# 86017
# 99122
# 118167
# 131070
# 147648
# 166559
# 182604
# 202354
# 216922
# 233485
# 248443
# 260491
# 280099
# 295979
# 315279
#
# Disc length: 4449 seconds
# Revision: 0
# Processed by: cddbd v1.5.1PL0 Copyright (c) Steve Scherf et al.
# Submitted via: VisiTrax 2.9.9.209 - For more info visit www.synapsa.com
#
DISCID=22115f14
DTITLE=Kenny Rogers - Twenty Greatest Hits
DYEAR=1900
DGENRE=
TTITLE0=Lucillie
TTITLE1=Lady
TTITLE2=Love lifted me
TTITLE3=We got tonight
TTITLE4=Scarlet Fever
TTITLE5=Love Or Something Like It
TTITLE6=She Believes In Me
TTITLE7=Ruby Don't Take Your Love To Town
TTITLE8=Don't Fall In Love With A Dreamer
TTITLE9=You Were A Good Friend
TTITLE10=The Gambler
TTITLE11=Through The Years
TTITLE12=Daytime Friends
TTITLE13=You Decorated My Life
TTITLE14=Till I Can Make It On My Own
TTITLE15=Reuben James
TTITLE16=Coward Of The County
TTITLE17=I Don't Need You
TTITLE18=Something's Burning
TTITLE19=Love Will Turn You Around
EXTD=
EXTT0=
EXTT1=
EXTT2=
EXTT3=
EXTT4=
EXTT5=
EXTT6=
EXTT7=
EXTT8=
EXTT9=
EXTT10=
EXTT11=
EXTT12=
EXTT13=
EXTT14=
EXTT15=
EXTT16=
EXTT17=
EXTT18=
EXTT19=
PLAYORDER=
